# xmcd CD database file
#
# Track frame offsets:
#	150
#	10249
#	26751
#	43214
#	56337
#	68569
#	80470
#	92459
#	102177
#	113879
#	126679
#	137075
#	147132
#	159046
#	175181
#	183904
#	194773
#	205652
#	222182
#	237546
#
# Disc length: 3313 seconds
#
# Revision: 3
# Processed by: cddbd v1.5.2PL0 Copyright (c) Steve Scherf et al.
# Submitted via: CDex 1.95
#
DISCID=180cef14
DTITLE=Various Artist - Golden Country Hits Vol23 Cd2
DYEAR=1999
DGENRE=Oldies
TTITLE0=Faron Young - Here Comes My Baby Back Again
TTITLE1=Hoyt Axton - Nashville
TTITLE2=John Brack and Jeff Turner - Amazing Grace
TTITLE3=Johnny Paycheck - Take Me
TTITLE4=Kitty Wells - Left To Right
TTITLE5=Mickey Gilley - Black Mountain Rag
TTITLE6=Mel Tilis - Ruby, Don't Take Your Love To Town
TTITLE7=Willie Nelson - Half A Man
TTITLE8=Barbara Fairchild - Give A Little Take A Little
TTITLE9=Carl Perkins - Honey Don't
TTITLE10=Faron Young - Face To The Wall
TTITLE11=Freddy Fender - Crazy Baby
TTITLE12=George Jones - They'll Never Take Her Love
TTITLE13=Hoyt Axton - Wild Bull Riders
TTITLE14=Kathy Mattea - Put Yourself In My Place
TTITLE15=Oak Ridge Boys - Welcome Home
TTITLE16=Porter Wagoner - I Though I Heard You Calling
TTITLE17=Mickey Gilley - You Need A Lady In Your Life
TTITLE18=Razzy Bailey - Midnight Hauler
TTITLE19=Tammy Wynette - Fairy Tales
EXTD=Disc 46 of 50 YEAR: 1999
EXTT0=
EXTT1=
EXTT2=
EXTT3=
EXTT4=
EXTT5=
EXTT6=
EXTT7=
EXTT8=
EXTT9=
EXTT10=
EXTT11=
EXTT12=
EXTT13=
EXTT14=
EXTT15=
EXTT16=
EXTT17=
EXTT18=
EXTT19=
PLAYORDER=
